<?xml version="1.0" encoding="UTF-8"?>
<svg version="1.1" xmlns="http://www.w3.org/2000/svg" width="460" height="460">
<path d="M0 0 C151.8 0 303.6 0 460 0 C460 151.8 460 303.6 460 460 C308.2 460 156.4 460 0 460 C0 308.2 0 156.4 0 0 Z " fill="#0E1117" transform="translate(0,0)"/>
<path d="M0 0 C0.72815918 0.1551709 1.45631836 0.3103418 2.20654297 0.47021484 C10.1346493 2.19969501 17.78200183 4.19008757 25 8 C25.65613281 8.33 26.31226563 8.66 26.98828125 9 C30.43291584 10.82572765 33.26822971 12.42822378 35 16 C35.125 18.375 35.125 18.375 34 21 C29.28885704 26.20468286 23.94433423 28.5748312 17.375 30.6875 C16.49271729 30.98221191 15.61043457 31.27692383 14.70141602 31.58056641 C-0.74714187 36.64404881 -15.3545707 38.18708835 -31.53222656 38.18530273 C-33.73262081 38.18748278 -35.93250673 38.20569205 -38.1328125 38.22460938 C-51.12351262 38.27760889 -63.69231447 36.92701625 -76.3125 33.6875 C-77.16279785 33.4709375 -78.0130957 33.254375 -78.88916016 33.03125 C-87.60921075 30.71527417 -95.6064628 27.55747405 -102 21 C-102.65234375 18.34375 -102.65234375 18.34375 -103 16 C-78.94836176 -7.9138065 -30.63740747 -6.65122167 0 0 Z " fill="#FBFBFC" transform="translate(264,145)"/>
<path d="M0 0 C3.15731688 1.57865844 4.66599489 2.4113715 7.015625 4.75 C7.54414063 5.2759375 8.07265625 5.801875 8.6171875 6.34375 C9.15601563 6.8903125 9.69484375 7.436875 10.25 8 C10.80429687 8.5465625 11.35859375 9.093125 11.9296875 9.65625 C16 13.7466133 16 13.7466133 16 16 C16.66 16 17.32 16 18 16 C21.1855259 21.97286106 21.86019755 27.26845403 21 34 C17.25800118 43.27364926 8.82989291 50.37259555 1.46875 56.890625 C-13.47417426 69.24584857 -13.47417426 69.24584857 -20.01953125 86.57714844 C-19.91905275 90.15729306 -19.63815473 93.64386341 -18.98022461 97.16601562 C-18.98675049 97.77123047 -18.99327637 98.37644531 -19 99 C-22 101 -22 101 -25.8671875 100.39453125 C-32.59683506 99.44659682 -38.99801114 99.20429248 -44.81756592 103.26971436 C-53.03857852 109.97567711 -60.26042856 118.0466609 -67.20860291 126.03794861 C-72.06217799 131.49683286 -77.9154916 136.34151449 -85.3828125 137.30859375 C-93.08112483 137.67048023 -97.27027206 136.080058 -103 131 C-107.46173177 126.79119191 -111.75303472 122.42419567 -116 118 C-114.46751951 114.41597305 -112.3325399 111.97149866 -109.625 109.1875 C-108.46871094 107.97126953 -108.46871094 107.97126953 -107.2890625 106.73046875 C-105 105 -105 105 -102.94921875 104.95703125 C-100.33194811 106.35745462 -99.00399292 108.16186655 -97.1875 110.5 C-94.51714498 113.59146853 -93.22284261 114.90778926 -89.375 116.5 C-85.02984209 115.8562729 -84.1157454 114.40524386 -81.56640625 111.00390625 C-80.01143438 109.01462802 -78.43857862 107.54680837 -76.5 105.9375 C-71.08628178 101.34213453 -66.16707843 96.24608889 -61.171875 91.20703125 C-60.61822266 90.65096191 -60.06457031 90.09489258 -59.49414062 89.52197266 C-58.26736833 88.27234872 -57.07402017 86.98999608 -55.890625 85.69921875 C-52.00150465 82.20383166 -48.28173759 81.75224729 -43.1875 81.875 C-42.21167969 81.89304687 -41.23585938 81.91109375 -40.23046875 81.9296875 C-39.49441406 81.95289063 -38.75835937 81.97609375 -38 82 C-38.10441406 80.85724609 -38.10441406 80.85724609 -38.2109375 79.69140625 C-38.56286039 72.97973405 -38.03862098 68.7204142 -34.09375 63.23046875 C-31.69316065 60.6731245 -29.10237174 58.45044185 -26.44775391 56.16137695 C-21.86250861 52.11258615 -17.46055955 47.87781028 -13.08764648 43.60253906 C-11.97922714 42.52609809 -10.86284208 41.45780443 -9.73901367 40.39746094 C-8.09684836 38.84635532 -6.48227173 37.27069242 -4.87109375 35.6875 C-4.3660582 35.22061768 -3.86102264 34.75373535 -3.34068298 34.27270508 C-1.73559496 32.74353273 -1.73559496 32.74353273 0 30 C-0.08834902 26.10089709 -0.19088737 23.92825669 -2.77734375 20.9609375 C-3.49019531 20.43757813 -4.20304687 19.91421875 -4.9375 19.375 C-8.71069156 16.56736199 -9.08269331 15.79326672 -11 11 C-7.37 7.37 -3.74 3.74 0 0 Z " fill="#006EDC" transform="translate(358,240)"/>
<path d="M0 0 C6.4580286 3.50437171 11.30098047 8.07750482 16.10546875 13.55078125 C17.43134781 14.98770456 18.76022408 16.421867 20.09179688 17.85351562 C22.14554353 20.07304872 24.17760744 22.30113291 26.1628418 24.58227539 C34.79492951 34.65197162 34.79492951 34.65197162 46.85009766 39.09521484 C51.56064871 39.3808131 56.20868304 39.24972223 60.9066925 38.8165741 C63 39 63 39 64.78504944 40.21591187 C66.3665262 42.53822358 66.21423603 43.72945524 65.95361328 46.50561523 C65.44933047 55.98776362 65.4143946 63.48393844 71.92596436 70.88735962 C75.44489157 74.43877036 79.11331029 77.77152226 82.875 81.0625 C85.13019452 83.13503004 87.37051217 85.22277334 89.6098938 87.31236267 C90.9962421 88.59500916 92.39472037 89.86471018 93.80685425 91.11891174 C101.59360048 98.07551721 101.59360048 98.07551721 102.3984375 103.8671875 C102.39070312 104.85976562 102.38296875 105.85234375 102.375 106.875 C102.38273438 107.86242187 102.39046875 108.84984375 102.3984375 109.8671875 C101.52025058 116.77214736 98.30675624 121.30405641 93.625 126.125 C93.15578125 126.62386719 92.6865625 127.12273437 92.203125 127.63671875 C90.81594401 129.10437157 89.40812603 130.55243067 88 132 C87.10023438 132.94617188 86.20046875 133.89234375 85.2734375 134.8671875 C83 137 83 137 81 137 C79.4140625 135.390625 79.4140625 135.390625 77.625 133.25 C75.18382134 130.3756268 72.72350008 127.61456008 70 125 C71.91762643 120.35344364 75.44495235 117.63273249 79.1015625 114.31640625 C81.127294 112.19189651 81.127294 112.19189651 81.52001953 109.77832031 C80.69822061 105.38767629 77.7525121 103.21570084 74.578125 100.23046875 C73.92173035 99.59063553 73.26533569 98.95080231 72.58905029 98.2915802 C70.48756964 96.24456102 68.37068173 94.21460809 66.25 92.1875 C64.14436245 90.17040152 62.0429885 88.14968925 59.95379639 86.11555481 C58.65470654 84.85093469 57.34627875 83.59581111 56.02716064 82.35209656 C51.16709938 77.62513461 47.45154814 72.68463281 46.609375 65.8125 C46.65578125 64.884375 46.7021875 63.95625 46.75 63 C46.78609375 62.05125 46.8221875 61.1025 46.859375 60.125 C46.90578125 59.42375 46.9521875 58.7225 47 58 C46.154375 58.06960937 45.30875 58.13921875 44.4375 58.2109375 C42.7359375 58.29214844 42.7359375 58.29214844 41 58.375 C39.329375 58.47941406 39.329375 58.47941406 37.625 58.5859375 C29.62335848 57.29256872 23.7941609 50.02328743 18.39453125 44.37890625 C16.98559702 42.93498951 15.57607494 41.49164618 14.16601562 40.04882812 C11.97386903 37.79443692 9.78679071 35.53570798 7.60961914 33.2668457 C5.48873342 31.06162677 3.34966106 28.87547488 1.20703125 26.69140625 C0.55797318 26.00510635 -0.0910849 25.31880646 -0.7598114 24.61170959 C-4.15153017 20.94100917 -4.15153017 20.94100917 -8.7980957 19.94506836 C-11.88834202 21.42560438 -13.69576296 23.47095935 -16 26 C-17.09894611 27.10936266 -18.20313734 28.21355389 -19.3125 29.3125 C-20.199375 30.199375 -21.08625 31.08625 -22 32 C-25.88397689 30.44997253 -28.02979619 27.99523379 -30.75 24.875 C-31.54921875 23.96492188 -32.3484375 23.05484375 -33.171875 22.1171875 C-33.77515625 21.41851562 -34.3784375 20.71984375 -35 20 C-33.56926054 18.33080397 -32.13740377 16.66279666 -30.69921875 15 C-29.6363588 13.74900162 -28.59350326 12.48040086 -27.58203125 11.1875 C-20.25354331 1.99096611 -12.05558634 -2.65015045 0 0 Z " fill="#006EDC" transform="translate(277,84)"/>
<path d="M0 0 C3.26260723 1.08753574 3.87217222 1.77827489 5.9375 4.375 C8.09461853 6.99474245 10.13524912 9.12689365 13 11 C11.78871758 15.99653999 8.73676326 18.05402191 4.77734375 20.9609375 C2.12972721 23.99842285 1.97670551 25.98618102 2 30 C3.76476081 32.86572037 6.124102 35.00826249 8.578125 37.2890625 C9.60169098 38.28853409 9.60169098 38.28853409 10.64593506 39.30819702 C12.82919645 41.43349599 15.03789412 43.52977642 17.25 45.625 C19.44246013 47.73226464 21.62918609 49.84516687 23.81121826 51.96322632 C25.16963794 53.27848391 26.53498169 54.58663785 27.90802002 55.8866272 C35.75606962 63.40783315 35.75606962 63.40783315 36.29296875 69.11328125 C36.25816406 70.16902344 36.22335938 71.22476563 36.1875 72.3125 C36.14689453 73.91544922 36.14689453 73.91544922 36.10546875 75.55078125 C36.07066406 76.35902344 36.03585938 77.16726563 36 78 C36.70125 77.94199219 37.4025 77.88398438 38.125 77.82421875 C39.548125 77.75654297 39.548125 77.75654297 41 77.6875 C41.928125 77.62949219 42.85625 77.57148438 43.8125 77.51171875 C51.81939745 78.73826554 57.45176044 85.10287669 62.7890625 90.7421875 C64.23902959 92.23491308 65.68956706 93.7270848 67.140625 95.21875 C69.39695564 97.55601638 71.64730477 99.89842145 73.88769531 102.25097656 C76.06860651 104.53434031 78.27064202 106.7955136 80.4765625 109.0546875 C81.14233307 109.76599823 81.80810364 110.47730896 82.49404907 111.21017456 C86.1929066 115.13900266 86.1929066 115.13900266 91.31005859 116.07470703 C94.79071061 114.68408894 96.52200587 112.79568569 99 110 C101.5625 107.125 101.5625 107.125 104 105 C106.94915759 105.13377622 107.95203469 105.9529397 110.0703125 108.03125 C111.08738281 109.25328125 111.08738281 109.25328125 112.125 110.5 C114.68606563 113.72377665 114.68606563 113.72377665 118 116 C116.36699466 120.14225745 113.36074465 122.93477844 110.25 126 C109.73695313 126.52078125 109.22390625 127.0415625 108.6953125 127.578125 C104.18699736 132.06378529 99.56826948 136.40288459 93 137 C92.2678125 137.08636719 91.535625 137.17273438 90.78125 137.26171875 C83.49940676 137.76740231 79.60087288 135.43818211 74 131 C71.39946469 128.54235626 69.04094379 125.91298704 66.67578125 123.23046875 C65.30432478 121.74796996 63.929876 120.26823478 62.55273438 118.79101562 C60.42668879 116.49915169 58.32211652 114.19849899 56.2644043 111.8449707 C49.0701496 103.66392775 43.37415056 97.38329223 32.04618835 96.63874817 C28.3369276 96.60729411 24.66664604 96.73166219 20.97184753 97.06196594 C19 97 19 97 17 95 C16.93307495 93.02220154 16.93307495 93.02220154 17.14404297 90.58764648 C17.61190057 81.11127511 17.60927742 73.5291466 11.07183838 66.16201782 C7.54976207 62.63936869 3.88541938 59.32753719 0.125 56.0625 C-2.13277097 54.01320928 -4.37503424 51.9486134 -6.6098938 49.87437439 C-7.99247815 48.60077064 -9.39077345 47.34393415 -10.80685425 46.10768127 C-15.81299572 41.63642861 -18.4582264 37.7826535 -19.43359375 30.97265625 C-19.44233489 24.46050406 -19.08329427 19.26138757 -15 14 C-13.11723624 12.12132033 -11.16775404 10.42142168 -9.10546875 8.7421875 C-5.85094343 6.04920365 -2.9425714 3.02533122 0 0 Z " fill="#006EDC" transform="translate(99,240)"/>
<path d="M0 0 C3.43320008 1.31867414 5.46849604 3.37041193 8 6 C9.12020401 7.099893 10.24282989 8.19732208 11.3671875 9.29296875 C14.62168896 12.48739655 17.81937067 15.7320973 21 19 C17.02896734 23.8591493 12.8858777 28.05371416 8 32 C6.89591797 30.82630859 6.89591797 30.82630859 5.76953125 29.62890625 C4.78439928 28.60624544 3.7986917 27.5841389 2.8125 26.5625 C2.08836914 25.7880957 2.08836914 25.7880957 1.34960938 24.99804688 C-1.59077531 21.97872568 -3.68983521 20.0954551 -8 20 C-11.80665086 22.47432306 -14.80689961 25.79823318 -18 29 C-19.48941046 30.48975619 -20.9790129 31.97932045 -22.46875 33.46875 C-23.69658203 34.69658203 -23.69658203 34.69658203 -24.94921875 35.94921875 C-32.53125 43.53125 -32.53125 43.53125 -34.8984375 45.890625 C-36.14358474 47.14040104 -37.38117537 48.3979099 -38.6015625 49.671875 C-41.68679816 52.88643191 -43.5865502 53.95599471 -48.13671875 54.09765625 C-49.30847656 54.08605469 -50.48023438 54.07445312 -51.6875 54.0625 C-53.45673828 54.04896484 -53.45673828 54.04896484 -55.26171875 54.03515625 C-56.16535156 54.02355469 -57.06898438 54.01195312 -58 54 C-57.67 54.99 -57.34 55.98 -57 57 C-56.1764078 62.96516067 -56.93217911 67.19463504 -60.4140625 72.12890625 C-62.53696945 74.63351814 -64.88789654 76.66108204 -67.41796875 78.74609375 C-71.00547072 81.87769532 -74.33330703 85.2468311 -77.6875 88.625 C-78.65018799 89.59385132 -78.65018799 89.59385132 -79.63232422 90.58227539 C-81.42280552 92.38694471 -83.21179617 94.19307424 -85 96 C-87.55339598 98.57849959 -90.07017006 101.06081405 -92.8125 103.4375 C-95.21707393 105.83871581 -95.21707393 105.83871581 -95.625 109 C-94.78410967 113.03627357 -93.09090436 114.31225708 -90 117 C-88.88804867 118.09632672 -87.78382672 119.20054867 -86.6875 120.3125 C-85.3571875 121.6428125 -85.3571875 121.6428125 -84 123 C-85.53248049 126.58402695 -87.6674601 129.02850134 -90.375 131.8125 C-91.53128906 133.02873047 -91.53128906 133.02873047 -92.7109375 134.26953125 C-95 136 -95 136 -97.2890625 135.76171875 C-97.85367188 135.51035156 -98.41828125 135.25898438 -99 135 C-99 134.34 -99 133.68 -99 133 C-99.5671875 132.75507813 -100.134375 132.51015625 -100.71875 132.2578125 C-106.82686914 128.88997968 -112.62185569 122.65903067 -115.41015625 116.234375 C-116.940774 110.43627332 -117.29613031 103.70495065 -114.5 98.25 C-111.58927574 94.00303578 -107.72366704 90.52137527 -104 87 C-103.175 86.175 -102.35 85.35 -101.5 84.5 C-99.33333333 82.33333333 -97.16666667 80.16666667 -95 78 C-94.30777344 77.30648437 -93.61554688 76.61296875 -92.90234375 75.8984375 C-91.46527954 74.46432414 -90.01661094 73.04182604 -88.5625 71.625 C-87.716875 70.75875 -86.87125 69.8925 -86 69 C-85.25105469 68.42121094 -84.50210938 67.84242188 -83.73046875 67.24609375 C-79.02483129 63.10365069 -76.82693227 59.79322387 -76.3046875 53.52734375 C-76.08293701 48.71134765 -76.11279198 43.90525486 -76.28955078 39.08789062 C-76.14622314 38.05438477 -76.14622314 38.05438477 -76 37 C-72.79105235 34.86070156 -72.08927425 34.77874931 -68.4296875 34.8671875 C-56.61561822 35.37920184 -56.61561822 35.37920184 -46.5 30.25 C-45.2894187 28.87067101 -44.11532453 27.45743156 -43 26 C-42.154375 25.175 -41.30875 24.35 -40.4375 23.5 C-39.633125 22.675 -38.82875 21.85 -38 21 C-35.97277709 18.96861441 -33.94135865 16.94146826 -31.91015625 14.9140625 C-30.40969734 13.41053517 -28.9212899 11.8949799 -27.4375 10.375 C-18.64289591 1.80589858 -12.52943119 -1.4097257 0 0 Z " fill="#006EDD" transform="translate(196,84)"/>
<path d="M0 0 C3.46539749 1.12057725 6.80196503 2.32787411 10.125 3.8125 C15.35745622 5.93743642 20.7194932 7.3212438 26.1875 8.6875 C27.0429541 8.90188721 27.8984082 9.11627441 28.77978516 9.3371582 C37.07643454 11.35772358 44.98945298 12.16515091 53.515625 12.203125 C54.52606873 12.20882507 55.53651245 12.21452515 56.57757568 12.22039795 C58.71576909 12.22981839 60.85397683 12.23637014 62.9921875 12.24023438 C66.19819038 12.2498447 69.40352487 12.28085682 72.609375 12.3125 C94.40510936 12.4255275 114.07958128 9.31841684 134.1796875 0.69921875 C136 0 136 0 138 0 C138.14560195 3.72875388 138.23417043 7.45677434 138.3125 11.1875 C138.3753418 12.77014648 138.3753418 12.77014648 138.43945312 14.38476562 C138.56307909 22.22265187 138.56307909 22.22265187 135.79296875 26.046875 C124.62766911 33.85477685 112.38211182 37.84345824 99 40 C97.97003906 40.185625 96.94007813 40.37125 95.87890625 40.5625 C75.6167908 43.70323695 54.02396974 43.49705718 34 39 C32.7924707 38.74259033 32.7924707 38.74259033 31.56054688 38.47998047 C9.03308084 33.58327602 9.03308084 33.58327602 1.37768555 25.22973633 C-0.32873015 22.46796163 -0.34675964 20.80557819 -0.29296875 17.578125 C-0.28330078 16.55332031 -0.27363281 15.52851563 -0.26367188 14.47265625 C-0.23853516 13.40917969 -0.21339844 12.34570312 -0.1875 11.25 C-0.17396484 10.17105469 -0.16042969 9.09210938 -0.14648438 7.98046875 C-0.11116584 5.3198058 -0.06184199 2.66015704 0 0 Z " fill="#FAFAFA" transform="translate(161,186)"/>
<path d="M0 0 C3.1342496 1.03678683 6.25966608 2.09106345 9.375 3.18359375 C17.83209782 6.10894763 26.1986799 8.30630881 35 10 C35.7175798 10.16184784 36.43515961 10.32369568 37.17448425 10.490448 C43.21319628 11.81374282 48.95239118 12.33153465 55.125 12.37109375 C56.06218369 12.38216156 56.99936737 12.39322937 57.96495056 12.40463257 C60.97680182 12.43143391 63.9880349 12.43788934 67 12.4375 C68.02723175 12.43889984 69.0544635 12.44029968 70.11282349 12.44174194 C91.79082648 12.4174172 111.63278327 9.67811742 132 2 C133.99745425 1.32574413 135.99672568 0.65676209 138 0 C138.14560195 3.72875388 138.23417043 7.45677434 138.3125 11.1875 C138.3753418 12.77014648 138.3753418 12.77014648 138.43945312 14.38476562 C138.56262265 22.19371363 138.56262265 22.19371363 135.8984375 26.01171875 C124.30628001 33.96375132 111.75680403 37.87410819 98 40 C96.34677734 40.28037109 96.34677734 40.28037109 94.66015625 40.56640625 C67.94565916 44.57498241 36.30700324 43.81602085 11.6875 31.6875 C10.53636719 31.13449219 9.38523438 30.58148438 8.19921875 30.01171875 C4.65342669 27.78206929 1.7939358 25.82677111 0 22 C-0.58010835 18.18257191 -0.47393139 14.47451773 -0.3125 10.625 C-0.28994141 9.60277344 -0.26738281 8.58054688 -0.24414062 7.52734375 C-0.18548082 5.01670419 -0.10345928 2.50912621 0 0 Z " fill="#FAFAFB" transform="translate(161,231)"/>
<path d="M0 0 C2.77012683 1.10404246 5.53191619 2.22136821 8.28515625 3.3671875 C18.93405767 7.67424083 29.67468394 10.16305351 41 12 C42.0631543 12.176521 43.12630859 12.35304199 44.22167969 12.53491211 C48.48984149 13.06029646 52.65395896 13.18024861 56.94921875 13.203125 C58.22826836 13.21167511 58.22826836 13.21167511 59.53315735 13.22039795 C61.33760354 13.22980965 63.14206662 13.23636662 64.9465332 13.24023438 C67.63460808 13.24981155 70.32187394 13.28081659 73.00976562 13.3125 C92.88410923 13.43464349 117.26115945 12.01413329 134.46875 0.91796875 C136 0 136 0 138 0 C138.14592789 3.70791544 138.23427895 7.41508726 138.3125 11.125 C138.3753418 12.69507813 138.3753418 12.69507813 138.43945312 14.296875 C138.5776082 23.0282757 138.5776082 23.0282757 135.7109375 26.58203125 C127.74993232 33.68269725 118.29990603 35.8972565 108.16357422 38.45068359 C106.77584303 38.80301886 105.39154439 39.16933928 104.01220703 39.55322266 C95.65581807 41.82423125 87.13270045 42.15604276 78.51171875 42.16796875 C77.21413383 42.17296135 77.21413383 42.17296135 75.89033508 42.17805481 C74.07443771 42.18307746 72.25853126 42.18546459 70.44262695 42.18530273 C67.70443097 42.1874865 64.96664053 42.20568508 62.22851562 42.22460938 C48.89792145 42.26931753 36.55579984 41.11748505 23.75 37.1875 C22.52023438 36.83461914 22.52023438 36.83461914 21.265625 36.47460938 C13.05855656 34.00080156 4.42077683 30.74738933 0 23 C-0.57140404 19.01569499 -0.47316015 15.13903211 -0.3125 11.125 C-0.28994141 10.05507813 -0.26738281 8.98515625 -0.24414062 7.8828125 C-0.18545633 5.25375593 -0.1034118 2.62761418 0 0 Z " fill="#FCFCFC" transform="translate(161,275)"/>
<path d="M0 0 C0 3 0 3 -2.40625 5.69921875 C-3.4299968 6.70302243 -4.4616054 7.69885649 -5.5 8.6875 C-6.02464844 9.19861328 -6.54929687 9.70972656 -7.08984375 10.23632812 C-8.38660904 11.49772708 -9.69246117 12.74977212 -11 14 C-11 11 -11 11 -8.875 8.6875 C-7.92625 7.800625 -6.9775 6.91375 -6 6 C-4.89194774 4.89973265 -3.78773961 3.7955798 -2.6875 2.6875 C-1.800625 1.800625 -0.91375 0.91375 0 0 Z " fill="#0166CB" transform="translate(334,294)"/>
</svg>
